<?xml version="1.0" encoding="utf-8"?>
<!-- Generator: Adobe Illustrator 25.0.0, SVG Export Plug-In . SVG Version: 6.00 Build 0)  -->
<svg version="1.1" id="Calque_1" xmlns="http://www.w3.org/2000/svg" xmlns:xlink="http://www.w3.org/1999/xlink" x="0px" y="0px"
	 viewBox="0 0 1920 1080" style="enable-background:new 0 0 1920 1080;" xml:space="preserve">
<style type="text/css">
	.st0{fill:#FFFFFF;}
	.st1{display:none;fill:#FFFFFF;}
</style>
<rect x="200" y="51.86" class="st0" width="219.59" height="976.14"/>
<rect x="728.72" y="52.08" class="st0" width="219.59" height="975.92"/>
<rect x="985.14" y="293.25" class="st0" width="219.59" height="734.75"/>
<rect x="1501.41" y="51.86" class="st0" width="219.59" height="976.14"/>
<rect x="357.84" y="693.96" transform="matrix(8.207381e-13 -1 1 8.207381e-13 -493.9635 1385.838)" class="st0" width="176.2" height="491.87"/>
<rect x="727.43" y="-219.39" transform="matrix(6.123234e-17 -1 1 6.123234e-17 675.5668 986.0967)" class="st0" width="206.81" height="749.3"/>
<rect x="1243.28" y="51.97" transform="matrix(-1 -1.224647e-16 1.224647e-16 -1 2706.1433 591.9006)" class="st0" width="219.59" height="487.96"/>
<rect x="633.67" y="353.75" transform="matrix(-1.836970e-16 1 -1 -1.836970e-16 1023.2057 -278.8479)" class="st1" width="34.71" height="36.85"/>
</svg>
